<?xml version="1.0" standalone="no"?>
<!DOCTYPE svg PUBLIC "-//W3C//DTD SVG 20010904//EN"
 "http://www.w3.org/TR/2001/REC-SVG-20010904/DTD/svg10.dtd">
<svg version="1.0" xmlns="http://www.w3.org/2000/svg"
 width="827.000000pt" height="827.000000pt" viewBox="0 0 827.000000 827.000000"
 preserveAspectRatio="xMidYMid meet">
<metadata>
Created by potrace 1.14, written by Peter Selinger 2001-2017
</metadata>
<g transform="translate(0.000000,827.000000) scale(0.100000,-0.100000)"
fill="#000000" stroke="none">
<path d="M3915 7694 c-93 -11 -354 -55 -400 -68 -27 -8 -68 -20 -90 -26 -143
-40 -304 -105 -450 -180 -154 -79 -180 -94 -183 -102 -2 -5 -9 -8 -16 -8 -7 0
-21 -9 -31 -20 -10 -11 -22 -20 -27 -20 -5 0 -26 -12 -46 -27 -113 -83 -147
-109 -150 -115 -2 -5 -8 -8 -13 -8 -5 0 -17 -8 -28 -17 -10 -10 -47 -43 -82
-73 -55 -47 -239 -231 -327 -325 -16 -17 -55 -67 -88 -110 -32 -44 -65 -87
-73 -95 -8 -8 -41 -55 -72 -105 -32 -49 -63 -95 -69 -102 -5 -7 -10 -15 -10
-19 0 -3 -9 -18 -19 -32 -49 -70 -173 -309 -228 -442 -19 -47 -41 -98 -48
-115 -79 -183 -199 -604 -225 -786 -6 -39 -12 -74 -14 -78 -5 -8 -25 -166 -38
-306 -11 -110 -15 -629 -5 -685 3 -19 11 -91 17 -160 6 -69 18 -162 26 -207
33 -193 47 -261 65 -318 10 -33 19 -68 19 -77 0 -16 30 -120 49 -173 4 -11 22
-65 40 -120 57 -174 232 -572 262 -595 4 -3 15 -24 25 -47 10 -24 22 -43 26
-43 5 0 8 -5 8 -10 0 -6 21 -43 48 -83 26 -39 63 -98 82 -129 19 -32 37 -58
41 -58 4 0 21 -22 39 -50 18 -27 36 -50 41 -50 5 0 9 -7 9 -15 0 -9 7 -18 15
-21 8 -4 15 -9 15 -13 0 -19 290 -325 375 -396 33 -27 65 -55 70 -61 6 -6 39
-33 75 -59 36 -27 82 -61 102 -77 20 -15 41 -28 47 -28 5 0 11 -3 13 -8 3 -6
76 -56 129 -87 99 -58 262 -137 414 -200 127 -52 380 -119 519 -137 480 -60
930 4 1351 194 50 22 99 44 110 49 11 5 47 25 80 45 33 19 72 40 88 47 15 6
27 15 27 19 0 4 5 8 11 8 9 0 186 116 199 131 3 3 23 18 45 35 22 16 45 34 50
40 6 5 33 28 60 49 83 65 336 324 410 420 38 50 73 92 77 93 4 2 8 10 8 17 0
7 4 15 8 17 8 3 162 225 162 233 0 3 24 45 54 94 118 193 261 521 338 771 50
163 57 190 99 385 42 197 50 249 69 450 6 66 15 145 20 175 22 140 -1 646 -40
875 -39 231 -98 494 -136 603 -9 26 -22 67 -29 92 -21 71 -60 178 -98 265 -19
44 -43 100 -53 125 -10 25 -46 97 -78 160 -33 63 -64 125 -70 137 -6 13 -14
23 -18 23 -5 0 -8 5 -8 10 0 6 -12 29 -27 53 -15 23 -42 67 -61 97 -54 85
-124 188 -141 208 -9 9 -47 56 -84 105 -38 48 -72 87 -78 87 -5 0 -9 5 -9 11
0 11 -275 289 -286 289 -4 0 -17 10 -29 23 -35 36 -86 77 -96 77 -5 0 -9 3 -9
8 -1 4 -24 23 -52 42 -28 19 -58 42 -68 50 -20 18 -49 38 -70 47 -8 4 -24 15
-34 25 -11 10 -26 18 -33 18 -7 0 -13 5 -13 10 0 6 -6 10 -14 10 -8 0 -21 6
-28 13 -7 6 -33 22 -58 34 -25 13 -61 32 -80 43 -52 30 -181 87 -214 96 -16 4
-41 13 -55 20 -14 8 -32 14 -39 14 -7 0 -27 7 -43 16 -54 28 -290 84 -439 105
-139 19 -430 32 -515 23z"/>
</g>
</svg>
